<?xml version="1.0"?>
<svg width="175.414" height="175.414" xmlns="http://www.w3.org/2000/svg" xmlns:svg="http://www.w3.org/2000/svg">
 <g class="layer">
  <title>Layer 1</title>
  <g id="svg_6" transform="translate(-0.237819 175.494) scale(1 1.00327) translate(0.237819 -175.494) translate(175.586 0.334604) matrix(2.13199 0 0 2.27475 -275.336 -113.292)">
   <path d="m46.81,126.68l18.32,0l0,-76.75l-18.32,0l0,76.75zm11.42,-68.39a10.4,10.4 0 0 1 4.37,0.85l-0.57,1.93a8.31,8.31 0 0 0 -3.86,-0.79c-4.24,0 -7.01,2.78 -7.01,7.38c0,4.66 2.63,7.42 6.72,7.42a7.15,7.15 0 0 0 3.01,-0.49l0,-5.48l-3.52,0l0,-1.91l5.75,0l0,8.83a15.11,15.11 0 0 1 -5.39,1.01a8.7,8.7 0 0 1 -6.52,-2.43a9.68,9.68 0 0 1 -2.44,-6.83c0,-5.48 3.6,-9.49 9.46,-9.49z" fill="#dc2715" id="svg_1"/>
   <path d="m68.1,126.68l18.32,0l0,-76.75l-18.32,0l0,76.75zm8.47,-48.39l2.39,0l0,18.36l-2.38,0l-0.01,-18.36zm12.83,48.39l18.31,0l0,-76.75l-18.31,0l0,76.75zm9.37,-15.76c-2.98,-1.09 -4.82,-2.67 -4.82,-5.23c0,-2.86 2.35,-4.99 5.9,-4.99a8.19,8.19 0 0 1 4.01,0.9l-0.66,1.94a6.71,6.71 0 0 0 -3.44,-0.87c-2.48,0 -3.43,1.5 -3.43,2.75c0,1.72 1.11,2.56 3.62,3.54c3.09,1.23 4.63,2.7 4.63,5.39c0,2.84 -2.05,5.31 -6.36,5.31a9.38,9.38 0 0 1 -4.66,-1.2l0.63,-1.98a7.94,7.94 0 0 0 4.19,1.2c2.42,0 3.82,-1.26 3.82,-3.14c0.01,-1.69 -0.96,-2.7 -3.43,-3.62zm11.93,-60.99l0,76.75l18.31,0l0,-76.75l-18.31,0zm16.13,30.37l-5.58,0l0,16.35l-2.39,0l0,-16.34l-5.55,0l0,-2.02l13.51,0l0.01,2.01z" fill="#4f5b54" id="svg_2"/>
  </g>
 </g>
</svg>